inDegrees=yes
name=ik_S42_A02_T02
DataType=double
version=3
OpenSimVersion=4.3-2021-08-27-4bc7ad9
endheader
time	pelvis_tilt	pelvis_list	pelvis_rotation	pelvis_tx	pelvis_ty	pelvis_tz	hip_flexion_r	hip_adduction_r	hip_rotation_r	knee_angle_r	knee_angle_r_beta	ankle_angle_r	subtalar_angle_r	mtp_angle_r	hip_flexion_l	hip_adduction_l	hip_rotation_l	knee_angle_l	knee_angle_l_beta	ankle_angle_l	subtalar_angle_l	mtp_angle_l	lumbar_extension	lumbar_bending	lumbar_rotation	arm_flex_r	arm_add_r	arm_rot_r	elbow_flex_r	pro_sup_r	wrist_flex_r	wrist_dev_r	arm_flex_l	arm_add_l	arm_rot_l	elbow_flex_l	pro_sup_l	wrist_flex_l	wrist_dev_l
0	0	0	0	0	0.9399999999999999	0	0	0	0	0	0	0	0	0	0	0	0	0	0	0	0	0	0	0	0	0	0	0	0	89.99999999963507	0	0	0	0	0	0	89.99999999869995	0	0
0.02	0.6765328672795682	-2.725131511756531	86.63260645012076	0	0.9399999999999999	0	3.849311057425469	0.1202758213849569	0.7188209992434986	3.747331963274084	0.065403280924356	0	0	0	2.055910930418877	2.702825059362875	-6.10454912234554	0.1579160561874092	0.002756155122234654	0	0	0	0	0	0	1.834156567163993	-1.834156567163993	0.3262015239161599	9.007619286493338	89.6737984948802	0	0	1.834156567163993	-1.834156567163993	0.3262015239161599	9.007619286493338	89.67379849400631	0	0
0.04	0.6853558265634168	-2.684408986457294	86.57088571878114	0	0.9399999999999999	0	3.854110575420259	0.1486922194351825	0.7353860001533085	3.800747457664378	0.06633555717304719	0	0	0	2.058502206881741	2.695252268222537	-6.120311028790113	0.1844681544639288	0.003219576660473032	0	0	0	0	0	0	1.998444396979938	-1.998444396979939	0.356636273351847	9.424823020607436	89.64336374723611	0	0	1.998444396979938	-1.998444396979939	0.356636273351847	9.424823020607436	89.64336374636792	0	0
0.06	0.6949867210898985	-2.674159938109575	86.5449274780121	0	0.9399999999999999	0	3.847341206810474	0.1610944660347891	0.7592310087302795	3.79042238709153	0.06615535069605022	0	0	0	2.075171863372457	2.68971954189752	-6.070535919716908	0.1900373546918283	0.003316777541152697	0	0	0	0	0	0	2.156352899514664	-2.156352899514665	0.3857826295857074	9.796610398423528	89.61421739271636	0	0	2.156352899514664	-2.156352899514665	0.3857826295857074	9.796610398423528	89.61421739185363	0	0
0.08	0.6891882488612561	-2.652841397153112	86.48968456065012	0	0.9399999999999999	0	3.858642790897223	0.173232366471457	0.7545389670714463	3.787579870685185	0.06610573942571753	0	0	0	2.091163488218219	2.69475393449201	-6.0589612787073	0.18865744611554	0.00329269359311996	0	0	0	0	0	0	2.156733790536034	-2.156733790536034	0.3858553835016448	9.799473422443263	89.61414463880473	0	0	2.156733790536034	-2.156733790536034	0.3858553835016448	9.799473422443263	89.61414463794205	0	0
0.1	0.6931116071868458	-2.632459638306099	86.43794176962025	0	0.9399999999999999	0	3.875763141606432	0.1912216719740649	0.7471009481864531	3.786697105098296	0.06609033225970302	0	0	0	2.130650035963659	2.701351164319042	-5.952387325474103	0.1851490841901787	0.003231461126170797	0	0	0	0	0	0	2.158090158102671	-2.158090158102672	0.3861195914185739	9.810685522994804	89.61388043090361	0	0	2.158090158102671	-2.158090158102672	0.3861195914185739	9.810685522994804	89.61388043004095	0	0
0.12	0.6894702089246544	-2.597362185312637	86.40372670731269	0	0.9399999999999999	0	3.852711923448041	0.1857237625577171	0.7609637816846837	3.788614725982291	0.06612380105793374	0	0	0	2.094763754366183	2.705518514877952	-5.981739861517517	0.191425775181239	0.003341010050095066	0	0	0	0	0	0	2.301816843689503	-2.301816843689504	0.4126198838892231	10.16584406996488	89.58738013999121	0	0	2.301816843689503	-2.301816843689504	0.4126198838892231	10.16584406996488	89.5873801391335	0	0
0.14	0.6945882007414291	-2.562645192220566	86.35108273346626	0	0.9399999999999999	0	3.880209502710121	0.1861987626224434	0.7530799139310471	3.787712921201487	0.06610806159529847	0	0	0	2.098377704764931	2.700585314345944	-5.980925500460512	0.1891704097397735	0.003301646497305797	0	0	0	0	0	0	2.302188697565547	-2.302188697565548	0.4126905726946109	10.16855593999994	89.58730945119001	0	1.508659379216363e-34	2.302188697565547	-2.302188697565548	0.4126905726946109	10.16855593999994	89.58730945033233	0	1.508659379216363e-34
